<svg width="208" height="165" viewBox="0 0 208 165" fill="none" xmlns="http://www.w3.org/2000/svg">
<path d="M157.787 155.358C160.756 163.671 167.772 162.686 174.944 159.505C185.09 155.003 198.584 134.456 199.922 124.76C201.15 115.862 197.969 108.893 191.041 107.987" fill="white"/>
<path d="M157.787 155.358C160.756 163.671 167.772 162.686 174.944 159.505C185.09 155.003 198.584 134.456 199.922 124.76C201.15 115.862 197.969 108.893 191.041 107.987" stroke="black" stroke-width="4.99999" stroke-linecap="round" stroke-linejoin="round"/>
<path d="M191.41 35.1057C202.216 37.4499 196.221 54.5649 187.122 71.278C183.589 77.767 193.584 104.263 187.425 121.138C183.418 132.116 168.366 152.164 157.762 154.927C139.605 159.658 123.653 156.561 107.705 148.078C102.052 145.071 96.28 140.792 91.947 136.819C77.719 123.774 30.586 107.597 27.579 103.464C19.222 91.985 35.473 84.708 44.41 87.69C48.739 89.135 81.745 96 77.347 92.317C66.544 83.269 52.45 73.68 38.624 65.385C17.935 52.9719 43.617 30.8555 62.871 42.677C71.89 48.2148 80.071 51.7783 99.91 64.609C92.522 53.6337 82.505 37.1358 74.122 27.5283C60.3 11.6853 88.655 -3.57142 105.148 16.1544C116.38 29.588 133.97 56.0061 158.095 73.664C157.887 58.558 158.816 28.0331 191.409 35.1033L191.41 35.1057Z" fill="white" stroke="black" stroke-width="4.99999" stroke-linecap="round" stroke-linejoin="round"/>
<path d="M101.248 62.139C111.001 74.86 113.098 83.62 114.638 87.496C108.74 79.354 107.461 77.132 100.512 68.921C99.334 67.529 97.731 66.101 95.511 64.682L101.248 62.139Z" fill="black"/>
<path d="M78.99 90.434C86.191 96.473 93.426 105.484 96.685 112.659C92.803 109.304 86.181 103.48 80.38 98.265C78.807 96.85 77.056 95.972 74.052 95.766C76.063 94.344 77.452 92.324 78.99 90.434Z" fill="black"/>
<path d="M158.14 140.066C145.755 136.423 143.137 134.204 137.468 131.54" stroke="black" stroke-width="4.99999" stroke-linecap="round" stroke-linejoin="round"/>
<path d="M166.083 131.637C153.798 124.358 148.577 119.701 140.835 114.107" stroke="black" stroke-width="4.99999" stroke-linecap="round" stroke-linejoin="round"/>
<path d="M175.259 121.296C167.552 115.201 164.483 111.61 159.977 107.243" stroke="black" stroke-width="4.99999" stroke-linecap="round" stroke-linejoin="round"/>
</svg>
