<svg width="208" height="165" viewBox="0 0 208 165" fill="none" xmlns="http://www.w3.org/2000/svg">
<path d="M50.213 155.358C47.2439 163.671 40.2281 162.686 33.056 159.505C22.9104 155.003 9.4164 134.456 8.0784 124.76C6.8503 115.862 10.0315 108.893 16.9593 107.987" fill="white"/>
<path d="M50.213 155.358C47.2439 163.671 40.2281 162.686 33.056 159.505C22.9104 155.003 9.4164 134.456 8.0784 124.76C6.8503 115.862 10.0315 108.893 16.9593 107.987" stroke="black" stroke-width="4.99999" stroke-linecap="round" stroke-linejoin="round"/>
<path d="M16.5897 35.1057C5.7839 37.4499 11.7787 54.5649 20.8782 71.278C24.4113 77.767 14.4162 104.263 20.5753 121.138C24.582 132.116 39.6338 152.164 50.238 154.927C68.395 159.658 84.347 156.561 100.295 148.078C105.948 145.071 111.72 140.792 116.053 136.819C130.281 123.774 177.414 107.597 180.421 103.464C188.778 91.985 172.527 84.708 163.59 87.69C159.261 89.135 126.255 96 130.653 92.317C141.456 83.269 155.55 73.68 169.376 65.385C190.065 52.9719 164.383 30.8555 145.129 42.677C136.11 48.2148 127.929 51.7783 108.09 64.609C115.478 53.6337 125.495 37.1358 133.878 27.5283C147.7 11.6853 119.345 -3.57142 102.852 16.1544C91.62 29.588 74.03 56.0061 49.9047 73.664C50.1126 58.558 49.1844 28.0331 16.5913 35.1033L16.5897 35.1057Z" fill="white" stroke="black" stroke-width="4.99999" stroke-linecap="round" stroke-linejoin="round"/>
<path d="M106.752 62.139C96.999 74.86 94.902 83.62 93.362 87.496C99.26 79.354 100.539 77.132 107.488 68.921C108.666 67.529 110.269 66.101 112.489 64.682L106.752 62.139Z" fill="black"/>
<path d="M129.01 90.434C121.809 96.473 114.574 105.484 111.315 112.659C115.197 109.304 121.819 103.48 127.62 98.265C129.193 96.85 130.944 95.972 133.948 95.766C131.937 94.344 130.548 92.324 129.01 90.434Z" fill="black"/>
<path d="M49.8603 140.066C62.245 136.423 64.863 134.204 70.532 131.54" stroke="black" stroke-width="4.99999" stroke-linecap="round" stroke-linejoin="round"/>
<path d="M41.917 131.637C54.2025 124.358 59.4235 119.701 67.165 114.107" stroke="black" stroke-width="4.99999" stroke-linecap="round" stroke-linejoin="round"/>
<path d="M32.7406 121.296C40.4477 115.201 43.5167 111.61 48.0228 107.243" stroke="black" stroke-width="4.99999" stroke-linecap="round" stroke-linejoin="round"/>
</svg>
