<svg width="142" height="135" viewBox="0 0 142 135" fill="none" xmlns="http://www.w3.org/2000/svg">
<path d="M123.678 86.5543C131.82 89.8943 135.739 84.0148 138.156 76.5498C141.573 65.9894 135.266 42.2301 128.955 34.7622C123.118 27.9153 115.892 25.6215 110.516 30.19" fill="white"/>
<path d="M123.678 86.5543C131.82 89.8943 135.739 84.0148 138.156 76.5498C141.573 65.9894 135.266 42.2301 128.955 34.7622C123.118 27.9153 115.892 25.6215 110.516 30.19" stroke="black" stroke-width="4.99983" stroke-linecap="round" stroke-linejoin="round"/>
<path d="M55.8118 12.5185C74.728 8.41356 107.507 21.5425 117.966 41.6469C123.251 52.0473 128.306 76.5512 123.263 86.298C114.719 102.978 101.707 112.797 84.7524 119.022C78.7465 121.22 71.7453 122.656 65.8543 123.24C41.8125 125.822 22.8674 121.14 23.023 104.423C2.68731 102.59 2.52731 71.6725 17.4329 69.1315C-2.34935 56.516 10.2043 31.5308 32.366 37.4168C34.5048 33.5749 36.1738 16.7867 55.8118 12.5185Z" fill="white" stroke="black" stroke-width="4.99983" stroke-linecap="round" stroke-linejoin="round"/>
<path d="M18.5439 71.5478C34.3973 73.9022 40.3683 70.9812 44.5562 70.4677C34.5371 69.2462 31.9664 69.2035 21.4206 67.1143C19.6269 66.7569 17.7812 66.2054 15.5933 64.6616L15.6918 72.2733C15.3344 72.3833 17.4024 71.553 18.5433 71.5479L18.5439 71.5478Z" fill="black"/>
<path d="M21.4553 106.696C30.8543 107.072 42.4526 106.468 49.6812 103.351C44.5098 103.22 31.1626 101.994 23.3722 101.953C23.3721 101.937 23.3887 101.966 21.4548 106.696H21.4553Z" fill="black"/>
<path d="M112.523 76.0899C101.52 82.8883 98.105 83.3617 92.3865 85.7994" stroke="black" stroke-width="4.99983" stroke-linecap="round" stroke-linejoin="round"/>
<path d="M111.543 64.5495C97.895 68.8512 90.9144 69.6375 81.6391 71.6638" stroke="black" stroke-width="4.99983" stroke-linecap="round" stroke-linejoin="round"/>
<path d="M109.962 50.8153C100.257 52.4953 95.502 52.3907 89.3368 52.8193" stroke="black" stroke-width="4.99983" stroke-linecap="round" stroke-linejoin="round"/>
<path d="M30.7421 34.8347C51.8976 36.2915 58.9262 28.8132 68.5973 23.0391C58.9048 31.0098 56.623 40.0976 32.1434 39.9138L30.7421 34.8347Z" fill="black"/>
</svg>
