<svg width="142" height="135" viewBox="0 0 142 135" fill="none" xmlns="http://www.w3.org/2000/svg">
<path d="M18.322 86.5543C10.18 89.8943 6.261 84.0148 3.844 76.5498C0.427002 65.9894 6.73401 42.2301 13.045 34.7622C18.882 27.9153 26.108 25.6215 31.484 30.19" fill="white"/>
<path d="M18.322 86.5543C10.18 89.8943 6.261 84.0148 3.844 76.5498C0.427002 65.9894 6.73401 42.2301 13.045 34.7622C18.882 27.9153 26.108 25.6215 31.484 30.19" stroke="black" stroke-width="4.99983" stroke-linecap="round" stroke-linejoin="round"/>
<path d="M86.1882 12.5185C67.272 8.41356 34.493 21.5425 24.034 41.6469C18.749 52.0473 13.694 76.5512 18.737 86.298C27.281 102.978 40.293 112.797 57.2476 119.022C63.2535 121.22 70.2547 122.656 76.1457 123.24C100.187 125.822 119.133 121.14 118.977 104.423C139.313 102.59 139.473 71.6725 124.567 69.1315C144.349 56.516 131.796 31.5308 109.634 37.4168C107.495 33.5749 105.826 16.7867 86.1882 12.5185Z" fill="white" stroke="black" stroke-width="4.99983" stroke-linecap="round" stroke-linejoin="round"/>
<path d="M123.456 71.5478C107.603 73.9022 101.632 70.9812 97.4438 70.4677C107.463 69.2462 110.034 69.2035 120.579 67.1143C122.373 66.7569 124.219 66.2054 126.407 64.6616L126.308 72.2733C126.666 72.3833 124.598 71.553 123.457 71.5479L123.456 71.5478Z" fill="black"/>
<path d="M120.545 106.696C111.146 107.072 99.5474 106.468 92.3188 103.351C97.4902 103.22 110.837 101.994 118.628 101.953C118.628 101.937 118.611 101.966 120.545 106.696H120.545Z" fill="black"/>
<path d="M29.477 76.0899C40.48 82.8883 43.895 83.3617 49.6135 85.7994" stroke="black" stroke-width="4.99983" stroke-linecap="round" stroke-linejoin="round"/>
<path d="M30.457 64.5495C44.105 68.8512 51.0856 69.6375 60.3609 71.6638" stroke="black" stroke-width="4.99983" stroke-linecap="round" stroke-linejoin="round"/>
<path d="M32.038 50.8153C41.743 52.4953 46.498 52.3907 52.6632 52.8193" stroke="black" stroke-width="4.99983" stroke-linecap="round" stroke-linejoin="round"/>
<path d="M111.258 34.8347C90.1024 36.2915 83.0738 28.8132 73.4027 23.0391C83.0952 31.0098 85.377 40.0976 109.857 39.9138L111.258 34.8347Z" fill="black"/>
</svg>
