<svg width="189" height="134" viewBox="0 0 189 134" fill="none" xmlns="http://www.w3.org/2000/svg">
<path d="M174.583 63.0059C183.271 64.4068 185.75 57.7901 186.407 49.9707C187.332 38.9097 175.786 17.207 167.942 11.3699C160.701 6.02972 153.143 5.43931 148.946 11.1109" fill="white"/>
<path d="M174.583 63.0059C183.271 64.4068 185.75 57.7901 186.407 49.9707C187.332 38.9097 175.786 17.207 167.942 11.3699C160.701 6.02972 153.143 5.43931 148.946 11.1109" stroke="black" stroke-width="4.99993" stroke-linecap="round" stroke-linejoin="round"/>
<path d="M91.6556 6.3434C109.143 -1.95609 144.05 3.37418 158.807 20.5735C166.319 29.4996 176.815 52.2122 174.12 62.8508C169.593 81.0371 159.155 93.5581 144.06 103.476C138.712 106.983 132.22 109.973 126.616 111.882C106.004 118.605 87.929 107.995 80.627 103.299C67.497 108.432 52.315 116.189 38.397 124.334C17.577 136.517 10.512 103.371 30.132 92.1574C39.317 86.9084 46.377 81.4412 67.157 70.2025C53.978 71.4144 34.696 72.2768 22.248 75.0133C1.709 79.5311 1.949 47.3311 27.174 42.3365C44.353 38.9364 58.089 39.0849 74.486 35.922C75.695 31.6943 73.503 14.966 91.6556 6.3434Z" fill="white" stroke="black" stroke-width="4.99993" stroke-linecap="round" stroke-linejoin="round"/>
<path d="M65.666 67.829C81.507 65.3839 90.192 67.753 94.3833 68.2426C84.371 69.5215 81.801 69.5789 71.267 71.7285C69.475 72.0962 67.455 72.8155 65.14 74.0824L65.666 67.829Z" fill="black"/>
<path d="M79.795 100.94C88.558 97.5204 99.9309 95.5046 107.782 96.095C98.2144 99.6047 90.6573 102.366 81.466 105.497C81.456 105.473 80.722 103.193 79.799 100.938L79.795 100.94Z" fill="black"/>
<path d="M161.34 55.3526C152.171 64.4753 148.953 65.713 143.939 69.3874" stroke="black" stroke-width="4.99993" stroke-linecap="round" stroke-linejoin="round"/>
<path d="M157.761 44.3373C145.449 51.6302 138.83 53.9835 130.258 58.0662" stroke="black" stroke-width="4.99993" stroke-linecap="round" stroke-linejoin="round"/>
<path d="M153.097 31.3222C144.029 35.1654 139.375 36.1449 133.468 37.9645" stroke="black" stroke-width="4.99993" stroke-linecap="round" stroke-linejoin="round"/>
<path d="M72.318 33.7768C93.2506 30.3841 98.3944 21.5031 106.499 13.6807C98.8731 23.6471 98.7179 33.0158 74.837 38.4042L72.318 33.7768Z" fill="black"/>
</svg>
