<svg width="189" height="134" viewBox="0 0 189 134" fill="none" xmlns="http://www.w3.org/2000/svg">
<path d="M14.4172 63.0059C5.72907 64.4068 3.24995 57.7901 2.59349 49.9707C1.66788 38.9097 13.2137 17.207 21.0576 11.3699C28.2989 6.02972 35.8572 5.43931 40.0535 11.1109" fill="white"/>
<path d="M14.4172 63.0059C5.72907 64.4068 3.24995 57.7901 2.59349 49.9707C1.66788 38.9097 13.2137 17.207 21.0576 11.3699C28.2989 6.02972 35.8572 5.43931 40.0535 11.1109" stroke="black" stroke-width="4.99993" stroke-linecap="round" stroke-linejoin="round"/>
<path d="M97.3444 6.3434C79.8571 -1.95609 44.9504 3.37418 30.1933 20.5735C22.6811 29.4996 12.1851 52.2122 14.8799 62.8508C19.4067 81.0371 29.8445 93.5581 44.9398 103.476C50.2884 106.983 56.7798 109.973 62.3837 111.882C82.9957 118.605 101.071 107.995 108.373 103.299C121.503 108.432 136.685 116.189 150.603 124.334C171.423 136.517 178.488 103.371 158.868 92.1574C149.683 86.9084 142.623 81.4412 121.843 70.2025C135.022 71.4144 154.304 72.2768 166.752 75.0133C187.291 79.5311 187.051 47.3311 161.826 42.3365C144.647 38.9364 130.911 39.0849 114.514 35.922C113.305 31.6943 115.497 14.966 97.3444 6.3434Z" fill="white" stroke="black" stroke-width="4.99993" stroke-linecap="round" stroke-linejoin="round"/>
<path d="M123.334 67.829C107.493 65.3839 98.808 67.753 94.6167 68.2426C104.629 69.5215 107.199 69.5789 117.733 71.7285C119.525 72.0962 121.545 72.8155 123.86 74.0824L123.334 67.829Z" fill="black"/>
<path d="M109.205 100.94C100.442 97.5204 89.0691 95.5046 81.2183 96.095C90.7856 99.6047 98.3427 102.366 107.534 105.497C107.544 105.473 108.278 103.193 109.201 100.938L109.205 100.94Z" fill="black"/>
<path d="M27.6605 55.3526C36.8292 64.4753 40.0472 65.713 45.0612 69.3874" stroke="black" stroke-width="4.99993" stroke-linecap="round" stroke-linejoin="round"/>
<path d="M31.2392 44.3373C43.5515 51.6302 50.1705 53.9835 58.7421 58.0662" stroke="black" stroke-width="4.99993" stroke-linecap="round" stroke-linejoin="round"/>
<path d="M35.9026 31.3222C44.9713 35.1654 49.6253 36.1449 55.5317 37.9645" stroke="black" stroke-width="4.99993" stroke-linecap="round" stroke-linejoin="round"/>
<path d="M116.682 33.7768C95.7494 30.3841 90.6056 21.5031 82.5009 13.6807C90.1269 23.6471 90.2821 33.0158 114.163 38.4042L116.682 33.7768Z" fill="black"/>
</svg>
